<?xml version="1.0" encoding="UTF-8"?>
<svg xmlns="http://www.w3.org/2000/svg" width="1920" height="300" viewBox="0 0 1920 300">
  <defs>
    <linearGradient id="mg" x1="0" y1="0" x2="0" y2="1">
      <stop offset="0" stop-color="#2d5a3d"/>
      <stop offset="1" stop-color="#5a9d6e"/>
    </linearGradient>
  </defs>
  <polygon points="0,300 200,120 400,300" fill="#3a6b4a" opacity="0.7"/>
  <polygon points="300,300 550,100 800,300" fill="#3a6b4a" opacity="0.7"/>
  <polygon points="700,300 950,140 1200,300" fill="#3a6b4a" opacity="0.7"/>
  <polygon points="1100,300 1350,90 1600,300" fill="#3a6b4a" opacity="0.7"/>
  <polygon points="1500,300 1750,130 1920,300" fill="#3a6b4a" opacity="0.7"/>
  <polygon points="0,300 250,180 500,300" fill="url(#mg)"/>
  <polygon points="450,300 750,160 1050,300" fill="url(#mg)"/>
  <polygon points="1000,300 1300,170 1600,300" fill="url(#mg)"/>
  <polygon points="1550,300 1800,190 1920,300" fill="url(#mg)"/>
</svg>
